<mxfile host="app.diagrams.net" modified="2023-10-05T10:22:40.464Z" agent="Mozilla/5.0 (X11; Ubuntu; Linux x86_64; rv:109.0) Gecko/20100101 Firefox/118.0" etag="y_pvDklS_bJh_bP9suZJ" version="21.8.2" type="device">
  <diagram name="Page-1" id="gUWhoODglxjBxta9EbK4">
    <mxGraphModel dx="2897" dy="2256" grid="1" gridSize="10" guides="1" tooltips="1" connect="1" arrows="1" fold="1" page="1" pageScale="1" pageWidth="827" pageHeight="1169" math="0" shadow="0">
      <root>
        <mxCell id="0" />
        <mxCell id="1" parent="0" />
        <mxCell id="lHEHGnT4-a6rpqSoE6ra-12" value="" style="verticalLabelPosition=bottom;verticalAlign=top;html=1;shape=mxgraph.basic.patternFillRect;fillStyle=diagRev;step=5;fillStrokeWidth=0.2;fillStrokeColor=#dddddd;" vertex="1" parent="1">
          <mxGeometry x="170" y="725" width="79.77" height="55" as="geometry" />
        </mxCell>
        <mxCell id="ZttpDixC8CZAMg3ueifD-7" style="rounded=0;orthogonalLoop=1;jettySize=auto;html=1;exitX=1;exitY=0.5;exitDx=0;exitDy=0;endArrow=none;endFill=0;" parent="1" source="ZttpDixC8CZAMg3ueifD-1" target="ZttpDixC8CZAMg3ueifD-4" edge="1">
          <mxGeometry relative="1" as="geometry" />
        </mxCell>
        <mxCell id="ZttpDixC8CZAMg3ueifD-8" style="edgeStyle=orthogonalEdgeStyle;rounded=0;orthogonalLoop=1;jettySize=auto;html=1;exitX=0.5;exitY=0;exitDx=0;exitDy=0;endArrow=none;endFill=0;" parent="1" source="ZttpDixC8CZAMg3ueifD-1" edge="1">
          <mxGeometry relative="1" as="geometry">
            <mxPoint x="414" y="290" as="targetPoint" />
          </mxGeometry>
        </mxCell>
        <mxCell id="lHEHGnT4-a6rpqSoE6ra-3" style="rounded=0;orthogonalLoop=1;jettySize=auto;html=1;exitX=0.5;exitY=1;exitDx=0;exitDy=0;endArrow=none;endFill=0;" edge="1" parent="1" source="ZttpDixC8CZAMg3ueifD-1" target="lHEHGnT4-a6rpqSoE6ra-2">
          <mxGeometry relative="1" as="geometry" />
        </mxCell>
        <mxCell id="ZttpDixC8CZAMg3ueifD-1" value="" style="image;html=1;image=img/lib/clip_art/networking/Firewall_02_128x128.png;direction=east;flipH=1;" parent="1" vertex="1">
          <mxGeometry x="364" y="350" width="100" height="100" as="geometry" />
        </mxCell>
        <mxCell id="ZttpDixC8CZAMg3ueifD-5" style="edgeStyle=orthogonalEdgeStyle;rounded=0;orthogonalLoop=1;jettySize=auto;html=1;exitX=0.875;exitY=0.5;exitDx=0;exitDy=0;exitPerimeter=0;endArrow=none;endFill=0;" parent="1" source="ZttpDixC8CZAMg3ueifD-2" target="ZttpDixC8CZAMg3ueifD-1" edge="1">
          <mxGeometry relative="1" as="geometry" />
        </mxCell>
        <mxCell id="ZttpDixC8CZAMg3ueifD-11" style="rounded=0;orthogonalLoop=1;jettySize=auto;html=1;exitX=0.4;exitY=0.1;exitDx=0;exitDy=0;exitPerimeter=0;endArrow=none;endFill=0;" parent="1" source="ZttpDixC8CZAMg3ueifD-2" target="ZttpDixC8CZAMg3ueifD-9" edge="1">
          <mxGeometry relative="1" as="geometry" />
        </mxCell>
        <mxCell id="ZttpDixC8CZAMg3ueifD-33" style="rounded=0;orthogonalLoop=1;jettySize=auto;html=1;exitX=0.625;exitY=0.2;exitDx=0;exitDy=0;exitPerimeter=0;strokeColor=none;" parent="1" source="ZttpDixC8CZAMg3ueifD-2" target="ZttpDixC8CZAMg3ueifD-32" edge="1">
          <mxGeometry relative="1" as="geometry" />
        </mxCell>
        <mxCell id="ZttpDixC8CZAMg3ueifD-34" style="rounded=0;orthogonalLoop=1;jettySize=auto;html=1;exitX=0.625;exitY=0.2;exitDx=0;exitDy=0;exitPerimeter=0;endArrow=none;endFill=0;strokeColor=#808080;" parent="1" source="ZttpDixC8CZAMg3ueifD-2" target="ZttpDixC8CZAMg3ueifD-32" edge="1">
          <mxGeometry relative="1" as="geometry" />
        </mxCell>
        <mxCell id="ZttpDixC8CZAMg3ueifD-42" style="rounded=0;orthogonalLoop=1;jettySize=auto;html=1;exitX=0.25;exitY=0.25;exitDx=0;exitDy=0;exitPerimeter=0;entryX=-0.126;entryY=0.9;entryDx=0;entryDy=0;entryPerimeter=0;" parent="1" source="ZttpDixC8CZAMg3ueifD-2" target="ZttpDixC8CZAMg3ueifD-39" edge="1">
          <mxGeometry relative="1" as="geometry" />
        </mxCell>
        <mxCell id="ZttpDixC8CZAMg3ueifD-2" value="" style="ellipse;shape=cloud;whiteSpace=wrap;html=1;fillColor=#ffe6cc;strokeColor=#d79b00;" parent="1" vertex="1">
          <mxGeometry x="70" y="335" width="230" height="130" as="geometry" />
        </mxCell>
        <mxCell id="ZttpDixC8CZAMg3ueifD-36" style="rounded=0;orthogonalLoop=1;jettySize=auto;html=1;exitX=0.5;exitY=0;exitDx=0;exitDy=0;endArrow=none;endFill=0;strokeColor=#808080;" parent="1" source="ZttpDixC8CZAMg3ueifD-15" target="ZttpDixC8CZAMg3ueifD-32" edge="1">
          <mxGeometry relative="1" as="geometry" />
        </mxCell>
        <mxCell id="ZttpDixC8CZAMg3ueifD-46" style="rounded=0;orthogonalLoop=1;jettySize=auto;html=1;exitX=0.88;exitY=0.25;exitDx=0;exitDy=0;exitPerimeter=0;entryX=0.174;entryY=1.029;entryDx=0;entryDy=0;entryPerimeter=0;endArrow=none;endFill=0;" parent="1" source="ZttpDixC8CZAMg3ueifD-3" target="ZttpDixC8CZAMg3ueifD-44" edge="1">
          <mxGeometry relative="1" as="geometry" />
        </mxCell>
        <mxCell id="ZttpDixC8CZAMg3ueifD-3" value="" style="ellipse;shape=cloud;whiteSpace=wrap;html=1;fillColor=#dae8fc;strokeColor=#6c8ebf;" parent="1" vertex="1">
          <mxGeometry x="300" y="160" width="220" height="130" as="geometry" />
        </mxCell>
        <mxCell id="ZttpDixC8CZAMg3ueifD-43" style="edgeStyle=orthogonalEdgeStyle;rounded=0;orthogonalLoop=1;jettySize=auto;html=1;exitX=0.4;exitY=0.1;exitDx=0;exitDy=0;exitPerimeter=0;endArrow=none;endFill=0;strokeColor=#808080;" parent="1" source="ZttpDixC8CZAMg3ueifD-4" target="ZttpDixC8CZAMg3ueifD-32" edge="1">
          <mxGeometry relative="1" as="geometry">
            <Array as="points">
              <mxPoint x="622" y="30" />
            </Array>
          </mxGeometry>
        </mxCell>
        <mxCell id="ZttpDixC8CZAMg3ueifD-4" value="" style="ellipse;shape=cloud;whiteSpace=wrap;html=1;fillColor=#f5f5f5;fontColor=#333333;strokeColor=#666666;" parent="1" vertex="1">
          <mxGeometry x="530" y="340" width="230" height="130" as="geometry" />
        </mxCell>
        <mxCell id="ZttpDixC8CZAMg3ueifD-9" value="" style="image;points=[];aspect=fixed;html=1;align=center;shadow=0;dashed=0;image=img/lib/allied_telesis/computer_and_terminals/Server_Desktop.svg;" parent="1" vertex="1">
          <mxGeometry x="109.76" y="190" width="80.47" height="102" as="geometry" />
        </mxCell>
        <mxCell id="ZttpDixC8CZAMg3ueifD-10" value="" style="image;aspect=fixed;html=1;points=[];align=center;fontSize=12;image=img/lib/azure2/networking/DNS_Zones.svg;" parent="1" vertex="1">
          <mxGeometry x="150" y="230" width="30" height="30" as="geometry" />
        </mxCell>
        <mxCell id="ZttpDixC8CZAMg3ueifD-14" value="&lt;div&gt;Internet&lt;/div&gt;&lt;div&gt;192.42.0.0/16&lt;/div&gt;" style="text;strokeColor=none;align=center;fillColor=none;html=1;verticalAlign=middle;whiteSpace=wrap;rounded=0;" parent="1" vertex="1">
          <mxGeometry x="140" y="385" width="90" height="40" as="geometry" />
        </mxCell>
        <mxCell id="ZttpDixC8CZAMg3ueifD-15" value="&lt;div&gt;DMZ&lt;br&gt;    172.17.100.0/24&lt;/div&gt;" style="text;strokeColor=none;align=center;fillColor=none;html=1;verticalAlign=middle;whiteSpace=wrap;rounded=0;" parent="1" vertex="1">
          <mxGeometry x="369" y="205" width="90" height="40" as="geometry" />
        </mxCell>
        <mxCell id="ZttpDixC8CZAMg3ueifD-16" value="LAN&lt;br&gt;    &lt;br/&gt;    192.168.100.0/24" style="text;strokeColor=none;align=center;fillColor=none;html=1;verticalAlign=middle;whiteSpace=wrap;rounded=0;" parent="1" vertex="1">
          <mxGeometry x="610" y="385" width="90" height="40" as="geometry" />
        </mxCell>
        <mxCell id="ZttpDixC8CZAMg3ueifD-17" value="Public DNS" style="text;strokeColor=none;align=center;fillColor=none;html=1;verticalAlign=middle;whiteSpace=wrap;rounded=0;" parent="1" vertex="1">
          <mxGeometry x="120" y="160" width="60" height="30" as="geometry" />
        </mxCell>
        <mxCell id="ZttpDixC8CZAMg3ueifD-18" value="Firewall" style="text;strokeColor=none;align=center;fillColor=none;html=1;verticalAlign=middle;whiteSpace=wrap;rounded=0;" parent="1" vertex="1">
          <mxGeometry x="350" y="330" width="60" height="30" as="geometry" />
        </mxCell>
        <mxCell id="ZttpDixC8CZAMg3ueifD-19" value="" style="shape=image;html=1;verticalAlign=top;verticalLabelPosition=bottom;labelBackgroundColor=#ffffff;imageAspect=0;aspect=fixed;image=https://cdn4.iconfinder.com/data/icons/crime-and-security-24/64/57-128.png" parent="1" vertex="1">
          <mxGeometry x="390" y="385" width="40" height="40" as="geometry" />
        </mxCell>
        <mxCell id="ZttpDixC8CZAMg3ueifD-28" style="rounded=0;orthogonalLoop=1;jettySize=auto;html=1;exitX=0.31;exitY=0.8;exitDx=0;exitDy=0;exitPerimeter=0;endArrow=none;endFill=0;" parent="1" target="ZttpDixC8CZAMg3ueifD-29" edge="1">
          <mxGeometry relative="1" as="geometry">
            <mxPoint x="141" y="439" as="sourcePoint" />
          </mxGeometry>
        </mxCell>
        <mxCell id="ZttpDixC8CZAMg3ueifD-29" value="" style="shape=image;html=1;verticalAlign=top;verticalLabelPosition=bottom;labelBackgroundColor=#ffffff;imageAspect=0;aspect=fixed;image=https://cdn0.iconfinder.com/data/icons/kameleon-free-pack/110/Hacker-128.png" parent="1" vertex="1">
          <mxGeometry x="59.769999999999996" y="495" width="90" height="90" as="geometry" />
        </mxCell>
        <mxCell id="ZttpDixC8CZAMg3ueifD-30" value="Attacker" style="text;strokeColor=none;align=center;fillColor=none;html=1;verticalAlign=middle;whiteSpace=wrap;rounded=0;" parent="1" vertex="1">
          <mxGeometry x="69.77" y="495" width="60" height="30" as="geometry" />
        </mxCell>
        <mxCell id="ZttpDixC8CZAMg3ueifD-32" value="" style="sketch=0;pointerEvents=1;shadow=0;dashed=0;html=1;strokeColor=none;fillColor=#505050;labelPosition=center;verticalLabelPosition=bottom;verticalAlign=top;outlineConnect=0;align=center;shape=mxgraph.office.devices.workstation;" parent="1" vertex="1">
          <mxGeometry x="364" y="-20" width="80" height="90" as="geometry" />
        </mxCell>
        <mxCell id="ZttpDixC8CZAMg3ueifD-37" value="&lt;div&gt;Management&lt;/div&gt;&lt;div&gt;Host&lt;br&gt;&lt;/div&gt;" style="text;html=1;strokeColor=none;fillColor=none;align=center;verticalAlign=middle;whiteSpace=wrap;rounded=0;" parent="1" vertex="1">
          <mxGeometry x="364" y="-50" width="60" height="30" as="geometry" />
        </mxCell>
        <mxCell id="ZttpDixC8CZAMg3ueifD-38" value="" style="image;points=[];aspect=fixed;html=1;align=center;shadow=0;dashed=0;image=img/lib/allied_telesis/computer_and_terminals/Server_Desktop.svg;" parent="1" vertex="1">
          <mxGeometry x="-10.469999999999985" y="230" width="80.47" height="102" as="geometry" />
        </mxCell>
        <mxCell id="ZttpDixC8CZAMg3ueifD-39" value="" style="image;aspect=fixed;html=1;points=[];align=center;fontSize=12;image=img/lib/azure2/networking/DNS_Zones.svg;" parent="1" vertex="1">
          <mxGeometry x="29.77000000000001" y="270" width="30" height="30" as="geometry" />
        </mxCell>
        <mxCell id="ZttpDixC8CZAMg3ueifD-40" value="&lt;div&gt;Corp&lt;/div&gt;&lt;div&gt;&amp;nbsp;DNS&lt;/div&gt;" style="text;strokeColor=none;align=center;fillColor=none;html=1;verticalAlign=middle;whiteSpace=wrap;rounded=0;" parent="1" vertex="1">
          <mxGeometry x="-10" y="200" width="60" height="30" as="geometry" />
        </mxCell>
        <mxCell id="ZttpDixC8CZAMg3ueifD-44" value="" style="image;points=[];aspect=fixed;html=1;align=center;shadow=0;dashed=0;image=img/lib/allied_telesis/computer_and_terminals/Server_Desktop.svg;" parent="1" vertex="1">
          <mxGeometry x="500.00000000000006" y="70" width="80.47" height="102" as="geometry" />
        </mxCell>
        <mxCell id="ZttpDixC8CZAMg3ueifD-45" value="" style="html=1;verticalLabelPosition=bottom;align=center;labelBackgroundColor=#ffffff;verticalAlign=top;strokeWidth=2;strokeColor=#0080F0;shadow=0;dashed=0;shape=mxgraph.ios7.icons.video_conversation;" parent="1" vertex="1">
          <mxGeometry x="540" y="113.5" width="30" height="15" as="geometry" />
        </mxCell>
        <mxCell id="ZttpDixC8CZAMg3ueifD-47" value="VideoServer" style="text;strokeColor=none;align=center;fillColor=none;html=1;verticalAlign=middle;whiteSpace=wrap;rounded=0;" parent="1" vertex="1">
          <mxGeometry x="510.24" y="50" width="60" height="30" as="geometry" />
        </mxCell>
        <mxCell id="lHEHGnT4-a6rpqSoE6ra-1" value="" style="ellipse;shape=cloud;whiteSpace=wrap;html=1;fillColor=#e1d5e7;strokeColor=#9673a6;" vertex="1" parent="1">
          <mxGeometry x="302.9" y="690" width="230" height="130" as="geometry" />
        </mxCell>
        <mxCell id="lHEHGnT4-a6rpqSoE6ra-2" value="" style="ellipse;shape=cloud;whiteSpace=wrap;html=1;" vertex="1" parent="1">
          <mxGeometry x="304.12" y="470" width="219.76" height="115" as="geometry" />
        </mxCell>
        <mxCell id="lHEHGnT4-a6rpqSoE6ra-7" style="edgeStyle=orthogonalEdgeStyle;rounded=0;orthogonalLoop=1;jettySize=auto;html=1;endArrow=none;endFill=0;" edge="1" parent="1" source="lHEHGnT4-a6rpqSoE6ra-4" target="lHEHGnT4-a6rpqSoE6ra-1">
          <mxGeometry relative="1" as="geometry" />
        </mxCell>
        <mxCell id="lHEHGnT4-a6rpqSoE6ra-4" value="" style="image;points=[];aspect=fixed;html=1;align=center;shadow=0;dashed=0;image=img/lib/allied_telesis/security/Router_VPN.svg;" vertex="1" parent="1">
          <mxGeometry x="390" y="620" width="55.800000000000004" height="39.6" as="geometry" />
        </mxCell>
        <mxCell id="lHEHGnT4-a6rpqSoE6ra-5" style="rounded=0;orthogonalLoop=1;jettySize=auto;html=1;exitX=0.55;exitY=0.95;exitDx=0;exitDy=0;exitPerimeter=0;entryX=0.538;entryY=0.051;entryDx=0;entryDy=0;entryPerimeter=0;endArrow=none;endFill=0;" edge="1" parent="1" source="lHEHGnT4-a6rpqSoE6ra-2" target="lHEHGnT4-a6rpqSoE6ra-4">
          <mxGeometry relative="1" as="geometry" />
        </mxCell>
        <mxCell id="lHEHGnT4-a6rpqSoE6ra-8" value="VPN Router" style="text;strokeColor=none;align=center;fillColor=none;html=1;verticalAlign=middle;whiteSpace=wrap;rounded=0;" vertex="1" parent="1">
          <mxGeometry x="337.9" y="610" width="60" height="30" as="geometry" />
        </mxCell>
        <mxCell id="lHEHGnT4-a6rpqSoE6ra-9" value="VPN-Net&lt;br&gt;192.168.10.0/24" style="text;html=1;strokeColor=none;fillColor=none;align=center;verticalAlign=middle;whiteSpace=wrap;rounded=0;" vertex="1" parent="1">
          <mxGeometry x="387.9" y="515" width="60" height="30" as="geometry" />
        </mxCell>
        <mxCell id="lHEHGnT4-a6rpqSoE6ra-10" value="Access-Net&lt;br&gt;192.168.50.0/24" style="text;html=1;strokeColor=none;fillColor=none;align=center;verticalAlign=middle;whiteSpace=wrap;rounded=0;" vertex="1" parent="1">
          <mxGeometry x="367.9" y="740" width="100" height="30" as="geometry" />
        </mxCell>
        <mxCell id="lHEHGnT4-a6rpqSoE6ra-13" style="rounded=0;orthogonalLoop=1;jettySize=auto;html=1;exitX=1;exitY=0.5;exitDx=0;exitDy=0;exitPerimeter=0;entryX=0.1;entryY=0.492;entryDx=0;entryDy=0;entryPerimeter=0;endArrow=none;endFill=0;" edge="1" parent="1" source="lHEHGnT4-a6rpqSoE6ra-12" target="lHEHGnT4-a6rpqSoE6ra-1">
          <mxGeometry relative="1" as="geometry" />
        </mxCell>
        <mxCell id="lHEHGnT4-a6rpqSoE6ra-23" value="" style="edgeStyle=orthogonalEdgeStyle;rounded=0;orthogonalLoop=1;jettySize=auto;html=1;" edge="1" parent="1" source="lHEHGnT4-a6rpqSoE6ra-16" target="lHEHGnT4-a6rpqSoE6ra-20">
          <mxGeometry relative="1" as="geometry" />
        </mxCell>
        <mxCell id="lHEHGnT4-a6rpqSoE6ra-16" value="" style="rounded=0;whiteSpace=wrap;html=1;" vertex="1" parent="1">
          <mxGeometry x="-130" y="710" width="70" height="80" as="geometry" />
        </mxCell>
        <mxCell id="lHEHGnT4-a6rpqSoE6ra-14" value="" style="outlineConnect=0;dashed=0;verticalLabelPosition=bottom;verticalAlign=top;align=center;html=1;shape=mxgraph.aws3.door_lock;fillColor=#5294CF;gradientColor=none;" vertex="1" parent="1">
          <mxGeometry x="-120" y="722.75" width="50" height="54.5" as="geometry" />
        </mxCell>
        <mxCell id="lHEHGnT4-a6rpqSoE6ra-18" value="" style="sketch=0;pointerEvents=1;shadow=0;dashed=0;html=1;strokeColor=none;fillColor=#434445;aspect=fixed;labelPosition=center;verticalLabelPosition=bottom;verticalAlign=top;align=center;outlineConnect=0;shape=mxgraph.vvd.cpu;" vertex="1" parent="1">
          <mxGeometry x="194.89000000000001" y="737.5" width="30" height="30" as="geometry" />
        </mxCell>
        <mxCell id="lHEHGnT4-a6rpqSoE6ra-24" value="" style="rounded=0;orthogonalLoop=1;jettySize=auto;html=1;endArrow=none;endFill=0;entryX=1;entryY=0.5;entryDx=0;entryDy=0;" edge="1" parent="1" source="lHEHGnT4-a6rpqSoE6ra-19" target="lHEHGnT4-a6rpqSoE6ra-16">
          <mxGeometry relative="1" as="geometry" />
        </mxCell>
        <mxCell id="lHEHGnT4-a6rpqSoE6ra-19" value="" style="ellipse;shape=cloud;whiteSpace=wrap;html=1;" vertex="1" parent="1">
          <mxGeometry x="-30" y="710" width="150" height="80" as="geometry" />
        </mxCell>
        <mxCell id="lHEHGnT4-a6rpqSoE6ra-20" value="Door-Net&lt;br&gt;192.168.51.0/24" style="text;html=1;strokeColor=none;fillColor=none;align=center;verticalAlign=middle;whiteSpace=wrap;rounded=0;" vertex="1" parent="1">
          <mxGeometry x="14.77000000000001" y="737.5" width="60" height="30" as="geometry" />
        </mxCell>
        <mxCell id="lHEHGnT4-a6rpqSoE6ra-22" style="rounded=0;orthogonalLoop=1;jettySize=auto;html=1;exitX=0.875;exitY=0.5;exitDx=0;exitDy=0;exitPerimeter=0;entryX=0;entryY=0.5;entryDx=0;entryDy=0;entryPerimeter=0;endArrow=none;endFill=0;" edge="1" parent="1" source="lHEHGnT4-a6rpqSoE6ra-19" target="lHEHGnT4-a6rpqSoE6ra-12">
          <mxGeometry relative="1" as="geometry" />
        </mxCell>
        <mxCell id="lHEHGnT4-a6rpqSoE6ra-25" value="Door Opener" style="text;strokeColor=none;align=center;fillColor=none;html=1;verticalAlign=middle;whiteSpace=wrap;rounded=0;" vertex="1" parent="1">
          <mxGeometry x="-125" y="670" width="60" height="30" as="geometry" />
        </mxCell>
        <mxCell id="lHEHGnT4-a6rpqSoE6ra-26" value="Access Control Unit" style="text;strokeColor=none;align=center;fillColor=none;html=1;verticalAlign=middle;whiteSpace=wrap;rounded=0;" vertex="1" parent="1">
          <mxGeometry x="179.89" y="690" width="60" height="30" as="geometry" />
        </mxCell>
        <mxCell id="lHEHGnT4-a6rpqSoE6ra-28" value="" style="verticalLabelPosition=bottom;verticalAlign=top;html=1;shape=mxgraph.basic.patternFillRect;fillStyle=diagRev;step=5;fillStrokeWidth=0.2;fillStrokeColor=#dddddd;" vertex="1" parent="1">
          <mxGeometry x="380.79999999999995" y="870" width="87.1" height="83.12" as="geometry" />
        </mxCell>
        <mxCell id="lHEHGnT4-a6rpqSoE6ra-27" value="" style="fontColor=#0066CC;verticalAlign=top;verticalLabelPosition=bottom;labelPosition=center;align=center;html=1;outlineConnect=0;fillColor=#CCCCCC;strokeColor=#6881B3;gradientColor=none;gradientDirection=north;strokeWidth=2;shape=mxgraph.networks.biometric_reader;" vertex="1" parent="1">
          <mxGeometry x="407.9" y="884.37" width="40" height="58.75" as="geometry" />
        </mxCell>
        <mxCell id="lHEHGnT4-a6rpqSoE6ra-29" style="rounded=0;orthogonalLoop=1;jettySize=auto;html=1;exitX=0.5;exitY=0;exitDx=0;exitDy=0;exitPerimeter=0;entryX=0.55;entryY=0.95;entryDx=0;entryDy=0;entryPerimeter=0;endArrow=none;endFill=0;" edge="1" parent="1" source="lHEHGnT4-a6rpqSoE6ra-28" target="lHEHGnT4-a6rpqSoE6ra-1">
          <mxGeometry relative="1" as="geometry" />
        </mxCell>
        <mxCell id="lHEHGnT4-a6rpqSoE6ra-30" value="Biometric Reader" style="text;strokeColor=none;align=center;fillColor=none;html=1;verticalAlign=middle;whiteSpace=wrap;rounded=0;" vertex="1" parent="1">
          <mxGeometry x="397.90000000000003" y="960" width="60" height="30" as="geometry" />
        </mxCell>
        <mxCell id="lHEHGnT4-a6rpqSoE6ra-32" value="" style="shape=image;html=1;verticalAlign=top;verticalLabelPosition=bottom;labelBackgroundColor=#ffffff;imageAspect=0;aspect=fixed;image=https://cdn1.iconfinder.com/data/icons/smartphone-signal-5g-trading/64/Smartphone_NFC-128.png" vertex="1" parent="1">
          <mxGeometry x="590" y="725" width="70" height="70" as="geometry" />
        </mxCell>
        <mxCell id="lHEHGnT4-a6rpqSoE6ra-33" style="rounded=0;orthogonalLoop=1;jettySize=auto;html=1;exitX=0.875;exitY=0.5;exitDx=0;exitDy=0;exitPerimeter=0;entryX=0.022;entryY=0.4;entryDx=0;entryDy=0;entryPerimeter=0;endArrow=none;endFill=0;" edge="1" parent="1" source="lHEHGnT4-a6rpqSoE6ra-1" target="lHEHGnT4-a6rpqSoE6ra-32">
          <mxGeometry relative="1" as="geometry" />
        </mxCell>
        <mxCell id="lHEHGnT4-a6rpqSoE6ra-34" value="Card Reader" style="text;strokeColor=none;align=center;fillColor=none;html=1;verticalAlign=middle;whiteSpace=wrap;rounded=0;" vertex="1" parent="1">
          <mxGeometry x="595" y="695" width="60" height="30" as="geometry" />
        </mxCell>
        <mxCell id="lHEHGnT4-a6rpqSoE6ra-36" value="" style="sketch=0;aspect=fixed;pointerEvents=1;shadow=0;dashed=0;html=1;strokeColor=none;labelPosition=center;verticalLabelPosition=bottom;verticalAlign=top;align=center;fillColor=#00188D;shape=mxgraph.azure.computer" vertex="1" parent="1">
          <mxGeometry x="224.89" y="880" width="61.11" height="55" as="geometry" />
        </mxCell>
        <mxCell id="lHEHGnT4-a6rpqSoE6ra-37" value="" style="sketch=0;aspect=fixed;pointerEvents=1;shadow=0;dashed=0;html=1;strokeColor=none;labelPosition=center;verticalLabelPosition=bottom;verticalAlign=top;align=center;fillColor=#00188D;shape=mxgraph.mscae.enterprise.monitor_running_apps" vertex="1" parent="1">
          <mxGeometry x="236.52999999999997" y="890" width="37.82" height="29.5" as="geometry" />
        </mxCell>
        <mxCell id="lHEHGnT4-a6rpqSoE6ra-38" style="rounded=0;orthogonalLoop=1;jettySize=auto;html=1;exitX=0.98;exitY=0.02;exitDx=0;exitDy=0;exitPerimeter=0;entryX=0.31;entryY=0.8;entryDx=0;entryDy=0;entryPerimeter=0;endArrow=none;endFill=0;" edge="1" parent="1" source="lHEHGnT4-a6rpqSoE6ra-36" target="lHEHGnT4-a6rpqSoE6ra-1">
          <mxGeometry relative="1" as="geometry" />
        </mxCell>
        <mxCell id="lHEHGnT4-a6rpqSoE6ra-39" value="Monitoring" style="text;strokeColor=none;align=center;fillColor=none;html=1;verticalAlign=middle;whiteSpace=wrap;rounded=0;" vertex="1" parent="1">
          <mxGeometry x="210" y="854.37" width="60" height="30" as="geometry" />
        </mxCell>
      </root>
    </mxGraphModel>
  </diagram>
</mxfile>
